# xmcd
#
# Track frame offsets: 
#        150
#        42663
#        83604
#        115801
#        166271
#        182721
#        192924
#        204330
#        219593
#        250532
#        285689
#        309691
#
# Disc length: 4420 seconds
#
# Revision: 0
# Processed by: cddbd v1.5.2PL0 Copyright (c) Steve Scherf et al.
# Submitted via: ExactAudioCopy v1.0b1
#
DISCID=a511420c
DTITLE=Sviatoslav Richter  - Sviatoslav Richter archives v. 15 [CD 2 o
DTITLE=f 2)
DYEAR=1965
DGENRE=Piano
TTITLE0=Scherzo, piano, no. 1, b minor     Op. 20  BI 065   [Frédéric 
TTITLE0=Chopin]  
TTITLE1=Scherzo, piano, no. 2, b-flat minor   Presto - Sostenuto  Op. 
TTITLE1=31  BI 111   [Frédéric Chopin]  
TTITLE2=Scherzo, piano, no. 3, c-sharp minor     Op. 39  BI 125   [Fré
TTITLE2=déric Chopin] 
TTITLE3=Scherzo, piano, no. 4, E Major     Op. 54  BI 148   [Frédéric 
TTITLE3=Chopin] 
TTITLE4=Miroirs, orchestra   Oiseaux tristes (Mournful birds)   [Mauri
TTITLE4=ce Ravel] 
TTITLE5=Preludes (13), piano   No. 12 in g-sharp minor  Op. 32   [Serg
TTITLE5=ei Rachmaninoff] 
TTITLE6=Études-tableaux, piano   No. 3 in f-sharp minor  Op. 39   [Ser
TTITLE6=gei Rachmaninoff] 
TTITLE7=Études-tableaux, piano   No. 9 in D Major  Op. 39   [Sergei Ra
TTITLE7=chmaninoff] 
TTITLE8=Impromptus (4), piano   No. 3 in G-Flat Major  Andante  Op. 90
TTITLE8=D 899   [Franz Schubert] 
TTITLE9=Impromptus (4), piano   No. 4 in A-Flat Major  Allegretto  Op.
TTITLE9=90  D 899   [Franz Schubert] 
TTITLE10=Moments musicaux, piano   No. 1 in C  Moderato  Op. 94  D 780
TTITLE10=[Franz Schubert] 
TTITLE11=March, piano, E Major     D 606   [Franz Schubert] 
EXTD=
EXTT0=
EXTT1=
EXTT2=
EXTT3=
EXTT4=
EXTT5=
EXTT6=
EXTT7=
EXTT8=
EXTT9=
EXTT10=
EXTT11=
PLAYORDER=
